Coordinates
version=1
nRows=13
nColumns=36
inDegrees=yes

Units are S.I. units (second, meters, Newtons, ...)
If the header above contains a line with 'inDegrees', this indicates whether rotational values are in degrees (yes) or radians (no).

endheader
time	pelvis_tilt	pelvis_list	pelvis_rotation	pelvis_tx	pelvis_ty	pelvis_tz	hip_flexion_r	hip_adduction_r	hip_rotation_r	knee_angle_r	knee_angle_r_beta	ankle_angle_r	subtalar_angle_r	mtp_angle_r	hip_flexion_l	hip_adduction_l	hip_rotation_l	knee_angle_l	knee_angle_l_beta	ankle_angle_l	subtalar_angle_l	mtp_angle_l	lumbar_extension	lumbar_bending	lumbar_rotation	arm_flex_r	arm_add_r	arm_rot_r	elbow_flex_r	pro_sup_r	arm_flex_l	arm_add_l	arm_rot_l	elbow_flex_l	pro_sup_l
      2.14583330	     -0.10591890	      0.08828392	     -0.94664141	     -0.92560675	      1.27067936	     -0.01985068	     11.13967353	     -1.59345978	     -1.45784970	     23.33151912	      0.40721183	      8.80541348	    -18.17143222	     -7.49999987	      7.35046310	     -0.68902336	      8.42222834	     18.04140004	      0.31488183	     10.99433598	    -13.23163092	     -7.49999987	    -19.72939693	     -2.60793236	     -0.00855797	      3.04180164	     -5.10677577	      1.11030819	     24.29120033	     88.26981577	      2.61054025	     -6.66039897	      1.36064028	     25.67730119	     95.82532525
      2.15000000	     -0.66623216	      0.14161177	     -0.99015491	     -0.92740642	      1.26928924	     -0.02005617	     12.24171768	     -1.65846778	     -1.63524207	     24.03965436	      0.41957112	      8.97878024	    -18.44203167	     -7.49999987	      8.26341022	     -0.61716192	      8.38901981	     18.61314082	      0.32486059	     11.20211296	    -13.48312836	     -7.49999987	    -19.08609728	     -2.69720038	     -0.03974329	      3.01165359	     -5.04109984	      1.16612183	     24.15947490	     87.36554690	      2.57117498	     -6.71458654	      1.38495418	     25.59963418	     95.31959569
      2.15416670	     -1.08025810	      0.17887261	     -1.03808826	     -0.92829027	      1.27089223	     -0.02063893	     13.03184672	     -1.74539814	     -1.88768158	     24.48412449	      0.42732859	      9.16524811	    -18.35984254	     -7.49999987	      8.92149877	     -0.56939688	      8.33014735	     18.93159968	      0.33041875	     11.29760763	    -13.39832711	     -7.49999987	    -18.57820509	     -2.72560352	     -0.07903475	      2.99850134	     -4.99299098	      1.33653582	     24.01670132	     85.61198386	      2.53250721	     -6.74744871	      1.62065383	     25.53728371	     93.40954952
      2.15833330	     -1.11856004	      0.16398927	     -1.16456187	     -0.92783273	      1.26670183	     -0.01993545	     13.36787649	     -1.73396610	     -1.98775624	     24.83903842	      0.43352300	      9.00011504	    -18.92592453	     -7.49999987	      9.10648576	     -0.59875354	      8.20675593	     19.16707724	      0.33452861	     11.50588891	    -13.34301978	     -7.49999987	    -18.63113615	     -2.71688642	      0.03379409	      2.96355064	     -5.14566503	      2.08713265	     24.33418330	     84.44063970	      2.54169072	     -6.96181802	      2.79819915	     25.80576153	     91.62349196
      2.16250000	     -1.86745398	      0.26488550	     -1.23888103	     -0.92850762	      1.26797383	     -0.02101682	     14.55282334	     -1.92223508	     -2.33468405	     25.36118783	      0.44263623	      9.05402801	    -19.05350530	     -7.49999987	     10.14218288	     -0.46028053	      8.13650367	     19.53186708	      0.34089539	     11.56476952	    -13.31729264	     -7.49999987	    -17.58766507	     -2.76840085	     -0.00708668	      2.88923319	     -5.05481933	      2.09522692	     23.99938255	     82.59600994	      2.39577568	     -6.92759907	      2.86214306	     25.57438615	     89.71994420
      2.16666670	     -2.12857869	      0.31572151	     -1.29072663	     -0.92936548	      1.26556818	     -0.02174679	     15.12297298	     -2.04467375	     -2.59594642	     25.76639006	      0.44970834	      9.11247641	    -19.33773779	     -7.49999987	     10.64515590	     -0.36835100	      8.05089611	     19.88727223	      0.34709838	     11.67831520	    -13.38219980	     -7.49999987	    -17.24145521	     -2.81516478	      0.01886462	      2.91824529	     -5.07575306	      2.34063528	     23.85883105	     81.35863328	      2.38130094	     -6.91571975	      3.16926596	     25.49087369	     88.39018342
      2.17083330	     -1.93924298	      0.36247909	     -1.32578112	     -0.92944013	      1.26872812	     -0.02193854	     14.95032670	     -2.14444016	     -2.85348382	     25.71467566	      0.44880576	      9.20342709	    -19.24477077	     -7.49999987	     10.42598070	     -0.27583072	      8.04553464	     19.83274588	      0.34614672	     11.74368067	    -13.16724525	     -7.49999987	    -17.51549849	     -2.84215058	      0.06934938	      2.91709427	     -5.13905851	      2.60521298	     24.02404757	     81.02718855	      2.46820793	     -6.96292862	      3.66733599	     25.66541260	     87.59610004
      2.17500000	     -2.01271093	      0.40855194	     -1.31363443	     -0.92892995	      1.26760969	     -0.02232330	     15.04667790	     -2.23641379	     -3.07932520	     25.70599651	      0.44865428	      9.14279357	    -19.45405005	     -7.49999987	     10.52698689	     -0.18861657	      8.05749879	     19.86073655	      0.34663524	     11.72412885	    -13.07187733	     -7.49999987	    -17.37784232	     -2.88233865	      0.07303369	      2.76143189	     -5.11550527	      1.36171159	     24.23826106	     87.80059304	      2.37616608	     -6.95297730	      2.38339435	     25.89873941	     95.95286578
      2.17916670	     -2.08563078	      0.43296649	     -1.32306201	     -0.92867542	      1.26640910	     -0.02319043	     15.10743299	     -2.33927749	     -3.38014079	     25.67832015	      0.44817123	      9.10252542	    -19.70792347	     -7.49999987	     10.67340840	     -0.12993632	      7.98280624	     19.99550209	      0.34898735	     11.78146282	    -12.91095402	     -7.49999987	    -17.23243525	     -2.86215405	      0.09035726	      2.71811315	     -5.15788075	      1.40969955	     24.22264481	     87.84635400	      2.32959513	     -6.94656106	      2.52545511	     25.90925548	     95.86656954
      2.18333330	     -2.58784449	      0.54342903	     -1.37153639	     -0.92924465	      1.26449502	     -0.02372240	     15.81264707	     -2.52059399	     -3.60199037	     25.89924143	      0.45202704	      9.11200216	    -20.27135683	     -7.49999987	     11.37345570	      0.03157688	      7.94384092	     20.31280630	      0.35452535	     11.80768047	    -12.99357789	     -7.49999987	    -16.50822066	     -2.94851776	      0.05042916	      2.59602130	     -5.10648275	      1.37740938	     24.07048518	     86.60406041	      2.14310286	     -6.93271900	      2.52236282	     25.86830894	     94.78449067
      2.18750000	     -2.56622658	      0.56085077	     -1.39094426	     -0.92843405	      1.26465442	     -0.02321694	     15.68715758	     -2.58902415	     -4.02585376	     25.78139918	      0.44997030	      9.16297565	    -20.42464375	     -7.49999987	     11.36118110	      0.07492957	      7.91722584	     20.37485977	      0.35560839	     11.86030040	    -12.95096669	     -7.49999987	    -16.43483226	     -2.96957007	      0.07662140	      2.60014360	     -5.12090267	      1.47026971	     23.92611392	     86.15758607	      2.15625680	     -6.94078091	      2.64369508	     25.75866366	     94.39198818
      2.19166670	     -2.44531295	      0.59508379	     -1.43904345	     -0.92873338	      1.26297407	     -0.02352005	     15.50514327	     -2.64515184	     -4.28001167	     25.72554761	      0.44899551	      9.19196848	    -20.92260478	     -7.49999987	     11.29084769	      0.11874288	      7.75518651	     20.52675102	      0.35825939	     12.15286170	    -12.67615336	     -7.49999987	    -16.64173621	     -3.00723914	      0.12650966	      2.51858495	     -5.21731691	      1.92045974	     24.21554828	     85.29615635	      2.13092544	     -7.03861092	      3.29451364	     26.09129632	     93.06863310
      2.19583330	     -2.58997378	      0.60414911	     -1.47527125	     -0.92923127	      1.26431842	     -0.02272115	     15.60948052	     -2.65472815	     -4.54859164	     25.63403780	      0.44739836	      9.17426949	    -21.22592653	     -7.49999987	     11.54070659	      0.10235346	      7.63531293	     20.73878250	      0.36196004	     12.29993465	    -12.55926827	     -7.49999987	    -16.35146257	     -3.02363043	      0.18080082	      2.47137233	     -5.24503126	      1.99644322	     24.06480274	     86.72360959	      2.11818884	     -7.10496215	      3.42497428	     25.99436578	     94.97714203
